# Blender 4.5.3 LTS
# www.blender.org
mtllib Untitled.mtl
o Cube
v 1.000000 1.000000 -1.000000
v 1.000000 -1.000000 -1.000000
v 1.000000 1.000000 1.000000
v 1.000000 -1.000000 1.000000
v -1.000000 1.000000 -1.000000
v -1.000000 -1.000000 -1.000000
v -1.000000 1.000000 1.000000
v -1.000000 -1.000000 1.000000
vn -0.0000 1.0000 -0.0000
vn -0.0000 -0.0000 1.0000
vn -1.0000 -0.0000 -0.0000
vn -0.0000 -1.0000 -0.0000
vn 1.0000 -0.0000 -0.0000
vn -0.0000 -0.0000 -1.0000
vt 0.625000 0.500000
vt 0.875000 0.500000
vt 0.875000 0.750000
vt 0.625000 0.750000
vt 0.375000 0.750000
vt 0.625000 1.000000
vt 0.375000 1.000000
vt 0.375000 0.000000
vt 0.625000 0.000000
vt 0.625000 0.250000
vt 0.375000 0.250000
vt 0.125000 0.500000
vt 0.375000 0.500000
vt 0.125000 0.750000
s 0
usemtl Material
f 1/1/1 5/2/1 7/3/1 3/4/1
f 4/5/2 3/4/2 7/6/2 8/7/2
f 8/8/3 7/9/3 5/10/3 6/11/3
f 6/12/4 2/13/4 4/5/4 8/14/4
f 2/13/5 1/1/5 3/4/5 4/5/5
f 6/11/6 5/10/6 1/1/6 2/13/6
o Cube.001
v -0.435685 -0.435685 -1.578261
v -0.435685 0.435685 -1.578261
v 0.435685 -0.435685 -1.578261
v 0.435685 0.435685 -1.578261
v -0.435685 -0.435685 -1.007183
v -0.435685 0.435685 -1.007183
v 0.435685 -0.435685 -1.007183
v 0.435685 0.435685 -1.007183
v -0.435685 -1.826869 -0.886441
v -0.435685 -1.390684 -0.886441
v 0.435685 -1.826869 -0.886441
v 0.435685 -1.390684 -0.886441
v -0.435685 -1.826869 -0.315363
v -0.435685 -1.390684 -0.315363
v 0.435685 -1.826869 -0.315363
v 0.435685 -1.390684 -0.315363
v -0.231114 -0.797418 -1.835345
v -0.231114 -0.194861 -1.527249
v 0.231114 -0.797418 -1.835345
v 0.231114 -0.194861 -1.527249
v -0.231114 -0.999338 -1.440442
v -0.231114 -0.396781 -1.132345
v 0.231114 -0.999338 -1.440442
v 0.231114 -0.396781 -1.132345
v -0.345824 -1.168039 -2.052014
v -0.345824 -0.709829 -1.900440
v 0.345824 -1.168039 -2.052014
v 0.345824 -0.709829 -1.900440
v -0.345824 -1.347391 -1.509830
v -0.345824 -0.889181 -1.358257
v 0.345824 -1.347391 -1.509830
v 0.345824 -0.889181 -1.358257
v -0.435685 -1.826869 -0.886441
v -0.435685 -1.826869 -0.315363
v 0.172388 -1.826869 -0.886441
v 0.172388 -1.826869 -0.315363
v -0.435685 -2.148313 -0.886441
v -0.435685 -2.148313 -0.315363
v 0.172388 -2.148313 -0.886441
v 0.172388 -2.148313 -0.315363
v -0.435685 -2.435543 -0.886441
v -0.435685 -2.435543 -0.315363
v 0.172388 -2.435543 -0.886441
v 0.172388 -2.435543 -0.315363
v 0.626675 -2.148313 -0.886441
v 0.626675 -2.148313 -0.315363
v 0.626675 -2.435543 -0.886441
v 0.626675 -2.435543 -0.315363
v -0.435685 -1.388290 -1.007716
v -0.435685 -1.013409 -1.007716
v 0.435685 -1.388290 -1.007716
v 0.435685 -1.013409 -1.007716
v -0.435685 -1.388290 0.000000
v -0.435685 -1.013409 0.000000
v 0.435685 -1.388290 0.000000
v 0.435685 -1.013409 0.000000
v -0.435685 -0.435685 1.578261
v -0.435685 0.435685 1.578261
v 0.435685 -0.435685 1.578261
v 0.435685 0.435685 1.578261
v -0.435685 -0.435685 1.007183
v -0.435685 0.435685 1.007183
v 0.435685 -0.435685 1.007183
v 0.435685 0.435685 1.007183
v -0.435685 -1.826869 0.886441
v -0.435685 -1.390684 0.886441
v 0.435685 -1.826869 0.886441
v 0.435685 -1.390684 0.886441
v -0.435685 -1.826869 0.315363
v -0.435685 -1.390684 0.315363
v 0.435685 -1.826869 0.315363
v 0.435685 -1.390684 0.315363
v -0.231114 -0.797418 1.835345
v -0.231114 -0.194861 1.527249
v 0.231114 -0.797418 1.835345
v 0.231114 -0.194861 1.527249
v -0.231114 -0.999338 1.440442
v -0.231114 -0.396781 1.132345
v 0.231114 -0.999338 1.440442
v 0.231114 -0.396781 1.132345
v -0.345824 -1.168039 2.052014
v -0.345824 -0.709829 1.900440
v 0.345824 -1.168039 2.052014
v 0.345824 -0.709829 1.900440
v -0.345824 -1.347391 1.509830
v -0.345824 -0.889181 1.358257
v 0.345824 -1.347391 1.509830
v 0.345824 -0.889181 1.358257
v -0.435685 -1.826869 0.886441
v -0.435685 -1.826869 0.315363
v 0.172388 -1.826869 0.886441
v 0.172388 -1.826869 0.315363
v -0.435685 -2.148313 0.886441
v -0.435685 -2.148313 0.315363
v 0.172388 -2.148313 0.886441
v 0.172388 -2.148313 0.315363
v -0.435685 -2.435543 0.886441
v -0.435685 -2.435543 0.315363
v 0.172388 -2.435543 0.886441
v 0.172388 -2.435543 0.315363
v 0.626675 -2.148313 0.886441
v 0.626675 -2.148313 0.315363
v 0.626675 -2.435543 0.886441
v 0.626675 -2.435543 0.315363
v -0.435685 -1.388290 1.007716
v -0.435685 -1.013409 1.007716
v 0.435685 -1.388290 1.007716
v 0.435685 -1.013409 1.007716
vn -1.0000 -0.0000 -0.0000
vn -0.0000 -0.0000 -1.0000
vn -0.0000 1.0000 -0.0000
vn -0.0000 -1.0000 -0.0000
vn 1.0000 -0.0000 -0.0000
vn -0.0000 -0.0000 1.0000
vn -0.0000 0.4553 -0.8904
vn -0.0000 0.8904 0.4553
vn -0.0000 -0.8904 -0.4553
vn -0.0000 -0.4553 0.8904
vn -0.0000 0.3141 -0.9494
vn -0.0000 0.9494 0.3141
vn -0.0000 -0.9494 -0.3141
vn -0.0000 -0.3141 0.9494
vn -0.0000 0.4553 0.8904
vn -0.0000 0.8904 -0.4553
vn -0.0000 -0.8904 0.4553
vn -0.0000 -0.4553 -0.8904
vn -0.0000 0.3141 0.9494
vn -0.0000 0.9494 -0.3141
vn -0.0000 -0.9494 0.3141
vn -0.0000 -0.3141 -0.9494
vt 0.375000 0.125000
vt 0.625000 0.125000
vt 0.625000 0.250000
vt 0.375000 0.250000
vt 0.625000 0.500000
vt 0.375000 0.500000
vt 0.875000 0.500000
vt 0.875000 0.625000
vt 0.625000 0.625000
vt 0.125000 0.500000
vt 0.375000 0.625000
vt 0.125000 0.625000
vt 0.750000 0.500000
vt 0.750000 0.625000
vt 0.375000 0.375000
vt 0.625000 0.375000
vt 0.250000 0.500000
vt 0.250000 0.625000
s 0
usemtl Material.001
f 13/15/7 14/16/7 10/17/7 9/18/7
f 9/18/8 10/17/8 12/19/8 11/20/8
f 12/19/9 10/21/9 14/22/9 16/23/9
f 9/24/10 11/20/10 15/25/10 13/26/10
f 11/20/11 12/19/11 16/23/11 15/25/11
f 14/16/12 13/15/12 15/25/12 16/23/12
f 21/15/7 22/16/7 18/17/7 17/18/7
f 20/27/9 18/21/9 22/22/9 24/28/9
f 19/20/11 20/19/11 24/23/11 23/25/11
f 22/16/12 21/15/12 23/29/12 24/30/12
f 17/18/8 18/17/8 20/30/8 19/29/8
f 29/15/7 30/16/7 26/17/7 25/18/7
f 25/18/13 26/17/13 28/19/13 27/20/13
f 28/19/14 26/21/14 30/22/14 32/23/14
f 25/24/15 27/20/15 31/25/15 29/26/15
f 27/20/11 28/19/11 32/23/11 31/25/11
f 30/16/16 29/15/16 31/25/16 32/23/16
f 37/15/7 38/16/7 34/17/7 33/18/7
f 33/18/17 34/17/17 36/19/17 35/20/17
f 36/19/18 34/21/18 38/22/18 40/23/18
f 33/24/19 35/20/19 39/25/19 37/26/19
f 35/20/11 36/19/11 40/23/11 39/25/11
f 38/16/20 37/15/20 39/25/20 40/23/20
f 42/15/7 41/18/7 45/18/7 46/15/7
f 48/29/12 46/15/12 50/15/12 52/29/12
f 43/31/11 44/32/11 48/32/11 47/31/11
f 41/18/8 43/29/8 47/29/8 45/18/8
f 44/29/12 42/15/12 46/15/12 48/29/12
f 49/24/10 51/31/10 52/32/10 50/26/10
f 45/18/8 47/29/8 51/29/8 49/18/8
f 47/31/9 48/32/9 54/32/9 53/31/9
f 46/15/7 45/18/7 49/18/7 50/15/7
f 53/31/11 54/32/11 56/32/11 55/31/11
f 51/29/8 47/29/8 53/29/8 55/29/8
f 48/29/12 52/29/12 56/29/12 54/29/12
f 52/32/10 51/31/10 55/31/10 56/32/10
f 17/18/10 19/31/10 23/29/10 21/15/10
f 41/18/9 42/15/9 44/29/9 43/31/9
f 61/15/7 62/16/7 58/17/7 57/18/7
f 57/18/8 58/17/8 60/19/8 59/20/8
f 60/19/9 58/21/9 62/22/9 64/23/9
f 57/24/10 59/20/10 63/25/10 61/26/10
f 59/20/11 60/19/11 64/23/11 63/25/11
f 69/15/7 65/18/7 66/17/7 70/16/7
f 65/18/12 67/20/12 68/19/12 66/17/12
f 68/19/9 72/23/9 70/22/9 66/21/9
f 65/24/10 69/26/10 71/25/10 67/20/10
f 67/20/11 71/25/11 72/23/11 68/19/11
f 70/16/8 72/23/8 71/25/8 69/15/8
f 77/15/7 73/18/7 74/17/7 78/16/7
f 76/27/9 80/28/9 78/22/9 74/21/9
f 75/20/11 79/25/11 80/23/11 76/19/11
f 78/16/8 80/30/8 79/29/8 77/15/8
f 73/18/12 75/29/12 76/30/12 74/17/12
f 85/15/7 81/18/7 82/17/7 86/16/7
f 81/18/21 83/20/21 84/19/21 82/17/21
f 84/19/22 88/23/22 86/22/22 82/21/22
f 81/24/23 85/26/23 87/25/23 83/20/23
f 83/20/11 87/25/11 88/23/11 84/19/11
f 86/16/24 88/23/24 87/25/24 85/15/24
f 93/15/7 89/18/7 90/17/7 94/16/7
f 89/18/25 91/20/25 92/19/25 90/17/25
f 92/19/26 96/23/26 94/22/26 90/21/26
f 89/24/27 93/26/27 95/25/27 91/20/27
f 91/20/11 95/25/11 96/23/11 92/19/11
f 94/16/28 96/23/28 95/25/28 93/15/28
f 98/15/7 102/15/7 101/18/7 97/18/7
f 104/29/8 108/29/8 106/15/8 102/15/8
f 99/31/11 103/31/11 104/32/11 100/32/11
f 97/18/12 101/18/12 103/29/12 99/29/12
f 100/29/8 104/29/8 102/15/8 98/15/8
f 105/24/10 106/26/10 108/32/10 107/31/10
f 101/18/12 105/18/12 107/29/12 103/29/12
f 103/31/9 109/31/9 110/32/9 104/32/9
f 102/15/7 106/15/7 105/18/7 101/18/7
f 109/31/11 111/31/11 112/32/11 110/32/11
f 107/29/12 111/29/12 109/29/12 103/29/12
f 104/29/8 110/29/8 112/29/8 108/29/8
f 108/32/10 112/32/10 111/31/10 107/31/10
f 73/18/10 77/15/10 79/29/10 75/31/10
f 97/18/9 99/31/9 100/29/9 98/15/9
f 61/15/7 113/18/7 114/17/7 62/16/7
f 113/18/12 115/20/12 116/19/12 114/17/12
f 116/19/9 64/23/9 62/22/9 114/21/9
f 113/24/10 61/26/10 63/25/10 115/20/10
f 115/20/11 63/25/11 64/23/11 116/19/11
